<?xml version="1.0" encoding="utf-8"?>
<!-- Generated by IcoMoon.io -->
<!DOCTYPE svg PUBLIC "-//W3C//DTD SVG 1.1//EN" "http://www.w3.org/Graphics/SVG/1.1/DTD/svg11.dtd">
<svg version="1.1" xmlns="http://www.w3.org/2000/svg" xmlns:xlink="http://www.w3.org/1999/xlink" width="1024" height="1024" viewBox="0 0 1024 1024">
<path  fill="#eee" d="M825.12 158.464h-626.24c-39.52 0-71.552 32.064-71.552 71.552v399.616c0 39.488 32.032 71.552 71.552 71.552h119.328l0.032 164.384 182.528-164.384h324.384c39.552 0 71.552-32.064 71.552-71.552v-399.616c-0.032-39.488-32.032-71.552-71.584-71.552zM320 447.008c-17.696 0-32-14.336-32-32 0-17.696 14.304-32 32-32 17.664 0 32 14.304 32 32 0 17.664-14.336 32-32 32zM448 445.664c-17.696 0-32-14.336-32-32 0-17.696 14.304-32 32-32 17.664 0 32 14.304 32 32 0 17.664-14.336 32-32 32zM576.64 446.336c-17.664 0-32-14.304-32-32 0-17.664 14.336-32 32-32 17.696 0 32 14.336 32 32s-14.336 32-32 32zM704 447.008c-17.696 0-32-14.336-32-32 0-17.696 14.304-32 32-32 17.664 0 32 14.304 32 32 0 17.664-14.336 32-32 32z"></path>
</svg>
