<?xml version="1.0" encoding="utf-8"?>
<!-- Generated by IcoMoon.io -->
<!DOCTYPE svg PUBLIC "-//W3C//DTD SVG 1.1//EN" "http://www.w3.org/Graphics/SVG/1.1/DTD/svg11.dtd">
<svg version="1.1" xmlns="http://www.w3.org/2000/svg" xmlns:xlink="http://www.w3.org/1999/xlink" width="37" height="32" viewBox="0 0 37 32">
<path d="M10.357 8.232q0-0.732-0.446-1.179t-1.179-0.446q-0.768 0-1.357 0.455t-0.589 1.17q0 0.696 0.589 1.152t1.357 0.455q0.732 0 1.179-0.438t0.446-1.17zM23.625 17.286q0-0.5-0.455-0.893t-1.17-0.393q-0.482 0-0.884 0.402t-0.402 0.884q0 0.5 0.402 0.902t0.884 0.402q0.714 0 1.17-0.393t0.455-0.911zM19.411 8.232q0-0.732-0.438-1.179t-1.17-0.446q-0.768 0-1.357 0.455t-0.589 1.17q0 0.696 0.589 1.152t1.357 0.455q0.732 0 1.17-0.438t0.438-1.17zM30.75 17.286q0-0.5-0.464-0.893t-1.161-0.393q-0.482 0-0.884 0.402t-0.402 0.884q0 0.5 0.402 0.902t0.884 0.402q0.696 0 1.161-0.393t0.464-0.911zM26 10.196q-0.554-0.071-1.25-0.071-3.018 0-5.554 1.375t-3.991 3.723-1.455 5.134q0 1.393 0.411 2.714-0.625 0.054-1.214 0.054-0.464 0-0.893-0.027t-0.982-0.116-0.795-0.125-0.973-0.188-0.893-0.188l-4.518 2.268 1.286-3.893q-5.179-3.625-5.179-8.75 0-3.018 1.741-5.554t4.714-3.991 6.491-1.455q3.143 0 5.938 1.179t4.679 3.259 2.438 4.652zM36.571 20.214q0 2.089-1.223 3.991t-3.313 3.455l0.982 3.232-3.554-1.946q-2.679 0.661-3.893 0.661-3.018 0-5.554-1.259t-3.991-3.42-1.455-4.714 1.455-4.714 3.991-3.42 5.554-1.259q2.875 0 5.411 1.259t4.063 3.429 1.527 4.705z" fill="#555555"></path>
</svg>
