<?xml version="1.0" encoding="utf-8"?>
<!-- Generator: Adobe Illustrator 15.0.0, SVG Export Plug-In . SVG Version: 6.00 Build 0)  -->
<!DOCTYPE svg PUBLIC "-//W3C//DTD SVG 1.0//EN" "http://www.w3.org/TR/2001/REC-SVG-20010904/DTD/svg10.dtd">
<svg version="1.0" id="Layer_1" xmlns="http://www.w3.org/2000/svg" xmlns:xlink="http://www.w3.org/1999/xlink" x="0px" y="0px"
	 width="237.378px" height="66.241px" viewBox="0 0 237.378 66.241" enable-background="new 0 0 237.378 66.241"
	 xml:space="preserve">
<path d="M142.068,14.033c-1.122-0.265-23.699,0-23.699,0s-2.137,1.239-2.12,5.133c0.016,3.769,3.25,4.534,3.25,4.534h13.062
	c0,0-0.14,36.978-0.12,38.081s0.444,2.696,5.245,2.631c1.005-0.014,5.227,0.215,5.395-2.113c0.323-4.477,0-46.676,0-46.676
	S143.05,14.265,142.068,14.033z"/>
<path d="M116.249,5.649c0,0-0.075,3.825,2.944,4.957h54.85c0,0,3.938-0.099,6.991,5.532c2.44,4.501,14.842,30.691,15.346,31.823
	s1.221,1.993,1.959,1.993c0.482,0,1.336-0.861,1.805-2.063c0.348-0.892,22.902-46.847,22.902-46.847h-9.731l-15.026,30.467
	l-8.449-19.146c0,0-3.292-10.425-15.597-11.32c-5.166-0.376-54.339,0-54.339,0S116.249,0.045,116.249,5.649z"/>
<path d="M237.378,0.877h-9.938c0,0-23.054,49.474-24.32,51.818c-1.279,2.368-2.237,3.295-5.555,3.275
	c-3.575-0.021-6.269-5.866-4.775-2.996c1.48,2.846-15.597-32.074-16.98-35.219s-5.031-3.841-5.031-3.841s-19.333-0.576-21.257,0
	c-1.644,0.492-1.51,1.955-1.51,1.955v45.91c0,0-0.003,2.239,2.932,2.291c2.378,0.042,4.949-0.056,4.949-0.056
	s2.254-0.045,2.477-2.285V23.7h8.813c0,0,1.165-0.065,2.206,1.803c0.658,1.181,13.502,27.95,16.432,32.234
	c3.88,5.674,7.227,6.987,11.493,6.987c4.026,0,8.246-0.78,11.98-6.503C213.358,51.991,237.378,0.877,237.378,0.877z"/>
<path fill="#E30613" d="M107.53,1.059c0,0-25.141,0-23.144,0c0.443,0-26.874,3.801-26.874,31.915
	c0,27.586,22.384,31.378,26.75,31.637s23.25,0,23.25,0s3.748,0.114,3.748-4.676c0-4.529-2.937-4.601-3.466-4.601s-19.185,0-19.185,0
	s-21.732-1.56-21.434-22.686c0.266-18.667,19.506-22.022,21.345-22.198c1.839-0.176,19.009-0.087,19.009-0.087
	s3.73,0.111,3.73-4.636C111.261,1.059,108.192,1.059,107.53,1.059z"/>
<path fill="#E30613" d="M107.53,13.677c-0.449-0.147-19.068,0.059-20.045,0.193c-0.978,0.134-15.207,3.826-15.216,18.796
	s12.456,18.633,14.176,19.021s21.085,0.031,21.085,0.031s3.73,0.149,3.709-5.153c-0.018-4.321-3.709-4.266-3.709-4.266l-15.77,0.001
	c0,0-9.521,0.438-9.065-9.465c0.454-9.847,8.056-9.63,8.495-9.658c0.674-0.042,15.891,0.149,16.34,0.037
	c0.449-0.112,4.299-0.04,4.299-5.208C111.829,13.626,107.979,13.825,107.53,13.677z"/>
<path d="M51.446,1.059c0,0-25.141,0-23.143,0c0.443,0-26.875,3.801-26.875,31.915c0,27.586,22.385,31.378,26.75,31.637
	c4.367,0.259,23.25,0,23.25,0s3.748,0.114,3.748-4.676c0-4.529-2.936-4.601-3.465-4.601s-19.185,0-19.185,0
	s-21.733-1.56-21.434-22.686c0.265-18.667,19.505-22.022,21.345-22.198c1.838-0.176,19.008-0.087,19.008-0.087
	s3.73,0.111,3.73-4.636C55.177,1.059,52.108,1.059,51.446,1.059z"/>
<path d="M51.446,13.677c-0.449-0.147-19.068,0.059-20.045,0.193s-15.207,3.826-15.215,18.796
	c-0.01,14.97,12.455,18.633,14.176,19.021c1.719,0.388,21.084,0.031,21.084,0.031s3.73,0.149,3.709-5.153
	c-0.018-4.321-3.709-4.266-3.709-4.266l-15.769,0.001c0,0-9.522,0.438-9.065-9.465c0.453-9.847,8.056-9.63,8.494-9.658
	c0.675-0.042,15.891,0.149,16.34,0.037c0.449-0.112,4.299-0.04,4.299-5.208C55.745,13.626,51.896,13.825,51.446,13.677z"/>
</svg>
